<?xml version="1.0" encoding="UTF-8"?>
<svg height="82" version="1.1" viewBox="0 0 150 82" width="150" xmlns="http://www.w3.org/2000/svg" xmlns:xlink="http://www.w3.org/1999/xlink">
    <!-- Generator: Sketch 55.2 (78181) - https://sketchapp.com -->
    <title>D+White Copy</title>
    <desc>Created with Sketch.</desc>
    <defs>
        <radialGradient cx="106.892743%" cy="99.7870837%" fx="106.892743%" fy="99.7870837%" gradientTransform="translate(1.068927,0.997871),scale(0.364264,1.000000),translate(-1.068927,-0.997871)" id="radialGradient-1" r="238.298035%">
            <stop offset="0%" stop-color="#999999"/>
            <stop offset="24%" stop-color="#999999" stop-opacity="0.78"/>
            <stop offset="45%" stop-color="#999999" stop-opacity="0.5"/>
            <stop offset="64%" stop-color="#999999" stop-opacity="0.29"/>
            <stop offset="80%" stop-color="#999999" stop-opacity="0.13"/>
            <stop offset="92%" stop-color="#999999" stop-opacity="0.04"/>
            <stop offset="100%" stop-color="#999999" stop-opacity="0"/>
        </radialGradient>
    </defs>
    <g fill="none" fill-rule="evenodd" id="Symbols" stroke="none" stroke-width="1">
        <g fill-rule="nonzero" id="D+White-Copy">
            <path d="M68.0863122,55.5464303 L68.2672322,55.5464303 C69.5320627,55.6682866 70.7750224,55.9590886 71.9631695,56.4111292 C72.8374786,56.7761758 73.5484407,57.449773 73.9619049,58.3048198 C74.6861703,59.6324614 74.8185332,61.2052429 74.3264112,62.6360097 C73.8342893,64.0667765 72.763393,65.2226326 71.3773333,65.8190535 C70.3156641,66.3003176 69.1787965,66.5928964 68.0173903,66.6837524 C65.8404519,66.8926444 63.6480043,66.5009744 61.6765747,65.5509969 C60.3680798,64.9575629 59.2538887,64.0041619 58.4630908,62.8012543 C57.9333174,61.8823647 57.9837556,60.7382599 58.5923193,59.8699249 C59.5830718,58.5037006 61.7196509,58.201056 63.3220853,58.2615849 C64.8818201,58.3632836 66.423617,58.6536174 67.9140074,59.1262838 C68.5147806,59.3295269 69.0923649,59.5961948 69.6370551,59.9218068 C69.7935431,60.0629585 69.8626004,60.277495 69.8179751,60.4838611 C69.5509027,61.2966781 67.5780131,61.7290276 67.0094074,61.8154975 C65.4845102,62.0489662 64.6919082,61.4696179 62.95163,60.7865058 C62.4922239,60.5890904 62.0082102,60.4552779 61.5128852,60.3887443 C60.7202833,60.3109213 59.7898375,60.5270961 59.626148,61.391795 C59.5486108,61.8414385 60.0655251,62.2564939 60.4876718,62.4294337 C61.3016834,62.792679 62.1814353,62.9839944 63.0722434,62.991488 C65.7774283,62.991488 68.8186075,62.5850795 71.0327238,61.0113275 C71.3698414,60.8135517 71.5935829,60.4670783 71.6357905,60.0774526 C71.6357905,59.2646356 70.2315066,58.7717573 70.2315066,58.7717573 C68.3991242,58.2083819 66.503061,57.8800693 64.5885253,57.7946475 C63.0980891,57.6649426 60.7547442,57.4660619 60.1947537,57.379592 C59.6039679,57.317151 59.0243416,57.1746192 58.471706,56.9558895 C57.9243792,56.7034579 57.5105792,56.2283513 57.3344945,55.6501941 C57.1208977,54.5797635 57.3511064,53.4681912 57.9720222,52.5718659 C59.4193822,50.4360596 62.8654776,49.6232426 65.4931254,49.303304 C68.1207731,48.9833654 72.0407067,48.9920124 74.5046649,50.3063548 C74.8837354,50.5052355 75.0732706,50.7041163 74.9957335,51.1018778 C74.8322354,51.8245131 74.2804183,52.3950461 73.5656039,52.5805129 C72.6139874,52.7912995 71.6449151,52.91288 70.6708837,52.9436865 C67.7072417,53.1166263 64.1233025,53.0215094 61.2975042,53.8083854 C61.0375261,53.856286 60.7907731,53.9594787 60.5738242,54.11103 C60.1258318,54.5952614 61.435348,54.7336133 61.6593442,54.7854952 L61.8402643,54.7854952 L68.0863122,55.5204893 L68.0863122,55.5464303 Z M50.4423037,42.2733017 C50.4423037,42.2733017 50.9247571,41.5469546 51.3038276,41.0021943 C52.2187442,39.8185765 53.2458957,38.7268258 54.3708525,37.7422793 L55.0428411,37.180225 C55.0428411,37.180225 54.4742353,37.2407539 54.1813172,37.3099299 C53.2819503,37.5924866 52.4514475,38.0608139 51.7432047,38.6848012 C50.8299894,39.4716772 49.8133913,40.7600786 50.2699989,41.9014812 L50.4423037,42.2733017 L50.4423037,42.2733017 Z M55.5597554,43.648173 C56.9926175,43.5506229 58.3852949,43.1309844 59.6347632,42.4203005 C60.8839728,41.7285414 62.7104033,40.3623171 62.5208681,38.7626241 C62.4586241,38.2666032 62.1264984,37.8465826 61.6593442,37.6731034 C61.166805,37.4477781 60.6011405,37.4477781 60.1086013,37.6731034 C59.6769214,37.7906937 59.2626597,37.9651504 58.8766222,38.1919228 C57.1557414,39.2828749 55.6224438,40.646611 54.3363915,42.2300668 C54.0865496,42.5586524 53.8280924,42.9391199 53.6213267,43.1898826 C53.414561,43.4406453 53.3973305,43.4925272 53.414561,43.5357621 C54.1077385,43.6860656 54.8208004,43.7211198 55.5252944,43.639526 L55.5597554,43.648173 Z M51.8207419,46.3719746 C51.6431459,46.6338934 51.4847814,46.9084402 51.3469037,47.1934386 C51.2517958,47.3496858 51.1325694,47.4897823 50.993679,47.6084941 C50.8539851,47.7543521 50.6611104,47.8367862 50.4595342,47.8367862 C50.257958,47.8367862 50.0650832,47.7543521 49.9253894,47.6084941 C49.4003003,47.1379303 49.0891601,46.4727593 49.0638655,45.7666854 C49.0854232,45.4788585 49.0854232,45.1898134 49.0638655,44.9019864 C48.8716885,44.4484185 48.6227133,44.0212763 48.322955,43.630879 C48.0298551,43.0546625 47.8541269,42.4255885 47.8060407,41.7804233 C47.8200343,40.0695926 48.5407173,38.4412969 49.7961608,37.2839889 C51.0117373,36.0085621 52.4787985,35.001394 54.1037801,34.3267186 C55.8338314,33.5345235 57.7796727,33.3517142 59.626148,33.8078992 C60.2868351,34.0499921 60.8784103,34.4507771 61.3491957,34.9752428 C61.4107931,35.0773593 61.4894847,35.1680419 61.5818071,35.2432994 C61.7212593,35.291572 61.8658076,35.3234898 62.012569,35.3384163 C62.6107156,35.4798974 63.1717778,35.7481949 63.6580796,36.1252923 C64.2546066,36.5841359 64.6648413,37.2447741 64.8125215,37.984395 C65.0015937,39.5951607 64.4163102,41.2001896 63.2359329,42.3078897 C61.654929,44.0163264 59.7158146,45.3512428 57.5584907,46.2163288 C56.4141591,46.673952 55.1886323,46.8917108 53.957321,46.856206 C53.6127115,46.856206 53.2594867,46.7351482 52.9234924,46.7178542 C52.6306276,46.6669082 52.3424685,46.5917107 52.0619685,46.4930325 C51.9844314,46.4325036 51.8724333,46.3719746 51.8552028,46.3979156 L51.8207419,46.3719746 Z M53.8367077,49.8567113 C53.9280019,49.8740399 54.0174339,49.9000997 54.1037801,49.9345342 C54.8156591,50.2781038 55.3031406,50.9630932 55.3960658,51.750402 C55.7994155,54.2392843 56.0354319,56.7525894 56.1025154,59.2732826 C56.1542068,60.4752141 56.1886678,61.6512047 56.231744,62.8358422 C56.3332215,63.9306722 56.3043,65.0337404 56.1455916,66.1216981 C56.067933,66.4999109 55.8451148,66.8322638 55.5252944,67.046926 C54.9979089,67.2714966 54.4147127,67.3288242 53.8539382,67.2112188 C52.7081114,66.9691031 52.3376562,66.234109 52.1739666,65.1100004 C51.8626885,61.7015841 51.8626885,58.2717344 52.1739666,54.8633181 C52.2893116,53.4770477 52.5344929,52.104763 52.9062619,50.7646452 C53.0441057,50.4360596 53.3197934,49.7615944 53.7677858,49.8999463 L53.8367077,49.8567113 Z M19.1431422,54.3099108 C19.1431422,54.3099108 17.4200945,54.4309686 16.282883,54.5606735 C14.2843409,54.7820017 12.3112265,55.1931344 10.3900598,55.788546 C9.90760648,55.9614857 8.92546929,56.3765412 8.8393169,56.8694196 C8.8194671,57.3883487 9.04652218,57.8858591 9.45099884,58.209703 C9.65776456,58.4518187 10.8208218,59.5759273 11.1740465,59.8526309 C13.072208,61.3619354 15.1500792,62.6283569 17.3597878,63.6227182 C18.0576221,63.9167159 19.2206793,64.3317714 19.2206793,64.3317714 C19.2206793,64.3317714 19.1345269,61.0199745 19.1517574,57.7427655 C19.1517574,56.0133677 19.1948336,54.2839698 19.1948336,54.2839698 L19.1431422,54.3099108 Z M50.3216904,55.6069592 C50.3562565,56.5442497 50.2985417,57.4826759 50.1493856,58.4085837 C50.0213662,59.0341811 49.8486144,59.6497101 49.6324713,60.2503924 C49.3137075,60.9680925 49.0121741,61.5560878 48.684795,62.1440831 C47.946732,63.3505566 47.0514496,64.4527008 46.0226863,65.421292 C43.1021205,67.9548599 38.5791203,69.3989071 34.6936477,69.8744915 C31.8827974,70.2111777 29.0378259,70.1295932 26.2507139,69.6323758 C25.2858072,69.459436 23.8556776,69.1222034 23.8556776,69.1222034 C23.8556776,69.1222034 23.8556776,69.7015517 23.8556776,70.0993132 C23.8062686,70.3953661 23.7253981,70.6852535 23.614451,70.9640121 C23.4222216,71.3651792 23.0384517,71.6393782 22.5978528,71.6903592 C22.0273706,71.8305809 21.4285061,71.8005273 20.8748051,71.6038894 C20.0615782,71.1871081 19.5396599,70.3582446 19.5135974,69.442142 C19.3929841,68.67256 19.2637555,67.3322766 19.2637555,67.3322766 L18.0403916,66.7442814 C16.3847798,65.916745 14.8049649,64.9445295 13.3192409,63.838893 C12.9315552,63.5448953 11.2429684,62.1094951 10.8725132,61.7809095 C9.8197224,60.8436453 8.91613719,59.7500979 8.19317401,58.5382885 C7.61190885,57.6787714 7.50176047,56.5829829 7.9002559,55.6242532 C8.47747688,54.171559 10.5623646,53.0301564 11.9924942,52.4421611 C13.8222412,51.7006227 15.713383,51.1219301 17.6440907,50.7127632 C18.2240298,50.6430348 18.7993748,50.539091 19.3671384,50.4014716 L19.427445,50.3495897 C19.427445,50.3063548 19.5135974,48.8623075 19.5049822,48.3348412 C19.4963669,47.8073748 19.8926679,44.4004611 20.0132813,43.674114 C20.1260677,42.8855933 20.349404,42.1170468 20.6766546,41.3913088 C20.7791126,41.2633822 20.9295524,41.1834696 21.0925641,41.1703806 C21.2555758,41.1572917 21.4167603,41.2121824 21.5381785,41.3221329 C23.0889214,42.2905957 23.5627595,45.6456275 23.6747576,47.3750254 C23.7436795,48.4126641 23.7781405,49.9691222 23.7781405,49.9691222 C23.7781405,49.9691222 25.5614949,49.9172402 26.6556302,49.9691222 C27.7763877,50.01925 28.8928586,50.1405505 29.9983427,50.3322957 C31.973853,50.6360333 33.904099,51.1850003 35.7447068,51.9665767 C37.0447,52.5665495 38.0827927,53.6207619 38.6652726,54.932494 C39.0487447,55.8532978 38.9552759,56.9046537 38.4154307,57.7427655 C37.7893046,58.8594918 36.6615591,59.6011937 35.391482,59.7315731 C34.6584144,59.7262476 33.9352642,59.5610214 33.2721333,59.2473417 C33.1320592,59.1029749 33.1320592,58.8728891 33.2721333,58.7285223 C33.3152095,58.6766404 33.9441219,58.3394078 34.3145772,58.140527 C34.4927646,58.0475022 34.6578902,57.9311976 34.8056458,57.7946475 C35.1256821,57.5918983 35.3304254,57.2483315 35.3570211,56.8694196 C35.3570211,56.4111292 34.8314915,56.1344255 34.3748839,55.9528388 C31.6072449,55.0279426 28.7370569,54.4471431 25.8285673,54.2234409 L23.8470624,54.136971 L24.0969043,65.6720547 C24.0969043,65.6720547 25.0531958,65.8622885 25.819952,65.9833463 C26.2507139,66.0525222 28.0857597,66.216815 28.5768283,66.225462 C32.2899961,66.3292259 36.4425411,65.9919933 39.8455603,64.3750063 C41.3266069,63.7313173 42.658457,62.7861642 43.7568786,61.5993228 C45.1704862,59.9411877 45.8570508,57.7803607 45.6608463,55.6069592 C45.4540806,53.1425672 43.7224177,50.2198849 42.3439795,48.4472521 C38.4757374,43.7346429 32.2383047,39.8780857 26.7417825,37.5952805 C21.3184705,35.2878643 15.5257818,33.9786075 9.64053408,33.7300763 C7.43775027,33.6372134 5.23169353,33.8026244 3.0671071,34.2229547 C2.82588042,34.2921306 2.58465374,34.3699535 2.36065754,34.4218354 C2.17263844,34.4702305 1.99268472,34.5459731 1.82651275,34.6466572 L1.74036036,34.7244801 C1.8072391,34.7630258 1.87627546,34.7976712 1.94712609,34.8282439 C2.1280461,34.9060668 2.87757185,34.9493018 3.27387282,35.0271247 C3.61659179,35.0711169 3.92717167,35.2519171 4.13539667,35.5286501 C4.28857076,35.7142392 4.28857076,35.9829381 4.13539667,36.1685273 C3.74771094,36.6441117 2.30896611,36.5576418 1.67143846,36.4625249 C1.03391081,36.367408 0.172386955,36.1512333 0.0259278999,35.554591 C-0.0708170147,34.8638206 0.105423914,34.1624655 0.516996495,33.6003715 C1.19663808,32.4249956 2.34952999,31.6020699 3.67878903,31.3435073 C5.84701059,30.75913 8.07051498,30.4055361 10.3125227,30.2885746 C14.6976401,30.1956287 19.0668484,30.8475782 23.2353805,32.2168532 C25.9907346,33.0715099 28.6825131,34.1204047 31.2906285,35.3557103 C33.2998874,36.3558434 35.2553731,37.4613011 37.1489907,38.6675072 C37.6228288,38.9874458 40.3969356,41.0281353 40.8276975,41.3826618 C41.6892214,42.1176559 42.8953548,43.1812356 43.7396481,43.9767586 C45.5833456,45.7871778 47.1613514,47.8513862 48.4263379,50.107474 C48.6675646,50.5830584 48.8484846,51.0586428 49.1586332,51.6034031 C49.4054721,52.1399509 49.6184027,52.6915674 49.7961608,53.2549781 C49.8650827,53.5749167 49.9770808,54.0505011 49.9943113,54.0677951 C50.1190249,54.5831342 50.211105,55.1058815 50.2699989,55.6329001 L50.3216904,55.6069592 Z M106.174282,53.0560973 C103.67487,53.4502111 101.155154,53.7013791 98.6273327,53.8083854 L97.9381136,55.9787797 C99.5093222,55.8526589 101.088056,55.8526589 102.659264,55.9787797 C102.659264,55.9787797 103.305407,55.9009568 103.382944,56.7137738 C103.393663,57.2364219 103.370641,57.759218 103.314022,58.2788789 C103.314022,58.2788789 103.314022,58.7631103 102.581727,58.8928151 C101.849432,59.0225199 96.6889041,59.2127537 96.6889041,59.2127537 L95.8273802,62.0403192 C95.8273802,62.0403192 95.5172316,62.6974904 96.2150659,62.5072566 C96.9129003,62.3170229 102.245733,61.3226191 102.952182,61.4696179 C103.856126,61.7455354 104.426011,62.6401791 104.29616,63.5794833 C104.011857,64.7208859 98.6273327,68.1623876 95.3535421,67.9029779 C95.3535421,67.9029779 93.6304944,68.0153888 92.1745191,65.6807017 C90.7185438,63.3460146 92.6914334,59.2559887 92.6914334,59.2559887 C92.6914334,59.2559887 91.8299095,57.2844751 92.4502067,56.6618919 C92.8809441,56.3824708 93.3847697,56.2379902 93.8975668,56.2468364 L95.2156983,53.5057408 C94.3088045,53.5435707 93.4317959,53.176276 92.820662,52.50269 C91.9591381,51.4477573 91.9591381,50.9635259 92.5622048,50.6781753 C96.2240906,49.7584311 99.987329,49.3080837 103.762015,49.337892 C103.762015,49.337892 105.261066,49.1908931 106.561967,51.7936369 C106.561967,51.7936369 107.182265,52.8485696 106.113975,53.0993323 L106.174282,53.0560973 Z M89.9431723,63.6054243 C89.391797,64.9111196 87.9272065,66.3032849 86.1180064,65.438586 C84.3088063,64.5738871 81.4916233,58.7285223 81.4916233,58.7285223 C81.4916233,58.7285223 80.4061033,56.549481 80.1993375,56.6013629 C80.1993375,56.6013629 79.9667261,56.1776605 79.820267,58.5555825 C79.673808,60.9335046 79.820267,65.5596438 78.9070518,66.2859909 C78.5335601,66.6146028 78.0332603,66.7584262 77.5430712,66.6781004 C77.0528822,66.5977746 76.6241369,66.3017114 76.3741716,65.8709355 C75.8658726,65.0062365 75.6504916,63.034723 75.9347945,59.5240453 C76.2190973,56.0133677 77.072006,52.2778683 78.1058346,51.1105248 C78.3551952,50.7484818 78.7657629,50.5323915 79.2042775,50.5323915 C79.6427921,50.5323915 80.0533597,50.7484818 80.3027204,51.1105248 C81.7251612,52.6089569 82.9604907,54.2756837 83.9814272,56.0738966 L84.3863435,56.7656557 C84.3863435,56.7656557 86.4626159,60.2244515 86.6866121,60.2244515 C86.7812185,60.2950722 86.9107696,60.2950722 87.005376,60.2244515 C87.2207569,60.1639225 87.1346045,59.0398139 87.1346045,59.0398139 C86.6267689,55.5572299 85.8490383,52.1197127 84.8084901,48.7585437 C84.6387316,48.2575775 84.6060046,47.7200711 84.7137225,47.2020856 C84.9032578,46.4411505 85.670014,46.7956771 85.670014,46.7956771 C85.670014,46.7956771 88.6078103,48.2829593 90.0379399,53.0820383 C91.0743897,56.4941964 91.0413079,60.1435833 89.9431723,63.5362484 L89.9431723,63.6054243 Z M121.586943,60.7346238 C120.251581,63.0779579 116.469492,67.9808008 111.446808,66.7875163 C109.505369,71.3274062 108.20903,76.1185443 107.595796,81.0204607 C107.595796,81.0204607 107.423491,82.2050982 106.441354,81.7986897 C104.849472,80.9474279 103.767335,79.374641 103.538019,77.5789589 C103.184794,74.6216886 104.502925,69.6323758 107.173649,63.8994219 C106.182614,62.1794943 105.874933,60.1474864 106.312125,58.209703 C107.092545,54.6387487 109.02081,51.4242697 111.800032,49.0611883 C111.800032,49.0611883 112.377253,48.5596629 112.713248,48.7066617 C113.049242,48.8536606 112.911398,50.4360596 112.61848,51.1969946 C112.325562,51.9579297 110.171752,55.6761351 110.171752,55.6761351 C110.171752,55.6761351 108.83639,58.201056 109.206846,60.1812165 C111.739726,56.2814243 117.477475,48.4213111 121.044183,50.902997 C122.233086,51.7676959 122.767231,53.6267986 122.767231,55.6415471 C122.786351,57.4016721 122.372037,59.1392896 121.561098,60.7000359 L121.586943,60.7346238 Z M120.587576,54.5779675 C120.587576,54.5779675 120.389425,53.0215094 118.864528,54.7336133 C116.691249,57.0730671 114.834487,59.6896727 113.34216,62.5159036 C114.96679,62.3067983 116.506894,61.6681941 117.804854,60.6654479 C118.743915,59.800749 120.92357,57.5611788 120.570345,54.5520265 L120.587576,54.5779675 Z M149.29355,54.2234409 L140.0494,54.2234409 C139.868112,51.0857063 139.482475,47.9632385 138.894958,44.8760455 C138.836447,44.5498963 138.553145,44.3129411 138.222969,44.3139877 L136.095005,44.3139877 C135.911451,44.3139877 135.737504,44.3963112 135.621167,44.5388129 C135.498958,44.681608 135.451058,44.8739147 135.491938,45.0576323 C136.085608,48.0832746 136.477039,51.1453747 136.663611,54.2234409 L127.807146,54.2234409 C127.396535,54.2234137 127.062339,54.5549855 127.05762,54.967082 L127.05762,56.8867136 C127.05762,57.3021908 127.393194,57.6390017 127.807146,57.6390017 L136.784224,57.6390017 C136.784224,58.1145861 136.784224,58.5037006 136.784224,58.9360501 C136.794901,61.4837168 136.662591,64.0299646 136.387923,66.5626946 C136.364438,66.7607205 136.427243,66.959285 136.560228,67.1074549 C136.692093,67.2538117 136.880573,67.3357871 137.077142,67.3323849 L139.041417,67.3323849 C139.425139,67.3339463 139.746635,67.0412821 139.782327,66.6578115 C140.050784,64.092837 140.180204,61.5151179 140.170013,58.9360501 C140.170013,58.5469355 140.170013,58.0713511 140.170013,57.6390017 L149.250474,57.6390017 C149.664426,57.6390017 150,57.3021908 150,56.8867136 L150,54.949788 C150,54.7510547 149.920772,54.5605844 149.779955,54.4208734 C149.639139,54.2811624 149.448464,54.2038361 149.250474,54.2061469 L149.29355,54.2234409 Z" fill="#999999" id="Shape"/>
            <path d="M137.860281,39.7746622 C128.998432,17.8781153 108.826361,2.69880443 85.4333849,0.32387037 C62.0404088,-2.05106369 39.257483,8.76731069 26.2209168,28.4406564 C26.093515,28.6355484 26.0617448,28.8783168 26.1346689,29.099711 C26.2092692,29.3230575 26.3855648,29.4970904 26.6090327,29.5679867 L28.2563688,30.1316519 C28.3533999,30.148482 28.4525808,30.148482 28.5496119,30.1316519 C28.8574059,30.134381 29.1459047,29.9811979 29.3172187,29.7240786 C40.5104263,13.1618892 59.1408528,3.25512839 79.0564195,3.27517426 C103.218724,3.28200426 125.033756,17.819198 134.453487,40.1909073 C134.585794,40.5147334 134.898783,40.7268097 135.246968,40.7285572 L137.222046,40.7285572 C137.449592,40.723968 137.660651,40.6082218 137.787687,40.4183558 C137.914723,40.2284897 137.94181,39.9883067 137.860281,39.7746622 L137.860281,39.7746622 Z" fill="url(#radialGradient-1)" id="Path"/>
        </g>
    </g>
</svg>