<svg xmlns="http://www.w3.org/2000/svg" xmlns:xlink="http://www.w3.org/1999/xlink" viewBox="0 0 66 20" version="1.1">
  <path d="M47.6074736,16.7495049 L51.0492451,12.6448945 C53.1414723,14.242674 55.5368412,14.9036446 57.7949439,14.9036446 C58.9511595,14.9036446 59.447052,14.6006274 59.447052,14.0772867 L59.447052,14.0220613 C59.447052,13.4712524 58.8410575,13.1682352 56.7762835,12.7550563 C52.453407,11.873473 48.6538762,10.6339362 48.6538762,6.55679403 L48.6538762,6.50156858 C48.6538762,2.83760535 51.5171064,0 56.8311901,0 C60.5480721,0 63.3014893,0.881583322 65.5315607,2.64474997 L62.392931,6.99744112 C60.5758143,5.67521071 58.4006494,5.09664455 56.610986,5.09664455 C55.6472322,5.09664455 55.2068242,5.42712987 55.2068242,5.89553426 L55.2068242,5.95047057 C55.2068242,6.47410042 55.729881,6.8042966 57.7672016,7.19000737 C62.6957838,8.09934799 66,9.53174018 66,13.4163161 L66,13.4712524 C66,17.5209264 62.6680415,20 57.4920911,20 C53.5821693,20 50.057749,18.8983823 47.6074736,16.7495049 Z M36.3730228,14.0221769 C39.3189018,14.0221769 41.2192451,12.8101083 41.2192451,10.0277284 L41.2192451,9.97250293 C41.2192451,7.19012303 39.3189018,5.97834353 36.3730228,5.97834353 L35.2991669,5.97834353 L35.2991669,14.0221769 L36.3730228,14.0221769 Z M28.8566099,0.358069133 L36.2351785,0.358069133 C43.8897246,0.358069133 47.7169976,4.13248327 47.7169976,9.83516213 L47.7169976,9.88980931 C47.7169976,15.5924882 43.8070758,19.6421622 36.0152635,19.6421622 L28.8566099,19.6421622 L28.8566099,0.358069133 Z M20.1555457,19.6419309 L20.1555457,0.358126961 L26.5983917,0.358126961 L26.5983917,19.6419309 L20.1555457,19.6419309 Z M0,0.358126961 L6.442846,0.358126961 L6.442846,7.57589163 L11.9219382,0.358126961 L19.4108978,0.358126961 L12.6929412,8.73302396 L19.548453,19.6419309 L11.8667427,19.6419309 L8.09495412,13.5263622 L6.442846,15.5373206 L6.442846,19.6419309 L0,19.6419309 L0,0.358126961 Z" fill="#000000"/>
</svg>
