<svg xmlns="http://www.w3.org/2000/svg" xmlns:xlink="http://www.w3.org/1999/xlink" viewBox="0 0 12 20" version="1.1">
  <path d="M11.7952007,18.7634646 C11.1184277,19.4862497 9.55005713,19.9768416 8.14562352,20 L7.99146797,20 C3.2732536,20 2.24849547,16.5311191 2.24849547,14.5062848 L2.24849547,8.88093243 L0.389731089,8.88093243 C0.174480079,8.88093243 0,8.70645235 0,8.49120134 L0,5.83469186 C0.000182829283,5.55450598 0.176765445,5.30476118 0.440892816,5.211244 C2.86310657,4.35804068 3.62273177,2.24422945 3.73517178,0.637464767 C3.76564333,0.208120667 3.99021863,0 4.36288566,0 L7.1333892,0 C7.34860974,0 7.52312029,0.174480079 7.52312029,0.389731089 L7.52312029,4.88885503 L10.7661766,4.88885503 C10.9810619,4.88870267 11.1555725,5.06248191 11.1562124,5.27736726 L11.1562124,8.46987126 C11.15606,8.6850918 10.9814276,8.85948046 10.7661766,8.85929763 L7.50818923,8.85929763 L7.50818923,14.0617049 C7.50818923,15.3680201 8.36901044,15.7284985 8.90073894,15.7284985 C9.41080216,15.7163099 9.91297326,15.560905 10.1646682,15.4597395 C10.3514588,15.3847795 10.5157309,15.3351108 10.6625733,15.3719814 C10.7993906,15.4061095 10.8893121,15.5030091 10.9499505,15.679744 L11.8095528,18.1905995 C11.8793327,18.3917117 11.9393311,18.6095833 11.7952007,18.7634646" fill="#999999" />
</svg>
